<svg preserveAspectRatio="none" overflow="visible" style="display: block;" width="16" height="16" viewBox="0 0 16 16" fill="none" xmlns="http://www.w3.org/2000/svg">
<g id="ic_cross_line">
<g id="Vector">
<path d="M12.2095 4.4976C12.4047 4.30233 12.4047 3.98575 12.2095 3.79049C12.0142 3.59523 11.6976 3.59523 11.5024 3.79049L8 7.29285L4.49764 3.79049C4.30238 3.59523 3.98579 3.59523 3.79053 3.79049C3.59527 3.98575 3.59527 4.30233 3.79053 4.4976L7.29289 7.99996L3.79053 11.5023C3.59527 11.6976 3.59527 12.0142 3.79053 12.2094C3.98579 12.4047 4.30238 12.4047 4.49764 12.2094L8 8.70706L11.5024 12.2094C11.6976 12.4047 12.0142 12.4047 12.2095 12.2094C12.4047 12.0142 12.4047 11.6976 12.2095 11.5023L8.7071 7.99996L12.2095 4.4976Z" fill="#212121"/>
</g>
</g>
</svg>
