<svg preserveAspectRatio="none" overflow="visible" style="display: block;" width="36" height="36" viewBox="0 0 36 36" fill="none" xmlns="http://www.w3.org/2000/svg">
<g id="Group 9">
<g id="Oval Copy 5">
</g>
<path id="Fill 1" fill-rule="evenodd" clip-rule="evenodd" d="M25.2674 19.0968C24.5447 18.2758 23.4742 17.7062 22.0534 17.386C23.0488 16.9399 23.651 16.6393 23.8594 16.4834C24.3652 16.1161 24.7459 15.706 25.002 15.2529C25.2587 14.7993 25.3872 14.3 25.3872 13.7529C25.3872 13.2449 25.3036 12.7681 25.1348 12.3228C24.966 11.8776 24.7055 11.4716 24.3528 11.1043C23.9914 10.737 23.5824 10.4399 23.1245 10.2137C22.6996 10.0108 22.3144 9.85829 21.969 9.75652C21.143 9.5458 20.3764 9.44044 19.671 9.44044H18.7802C18.6192 9.44044 18.4571 9.43828 18.2926 9.43415C18.128 9.43073 18.0416 9.42857 18.0337 9.42857C17.994 9.42857 17.9377 9.43073 17.8655 9.43415C17.7927 9.43828 17.7364 9.44044 17.6967 9.44044L17.1551 9.45177L12.5813 9.60405L9.45239 9.67435L9.50077 10.6471C10.1744 10.7335 10.6325 10.7841 10.8725 10.7995C11.2815 10.8234 11.5585 10.8817 11.7035 10.9757C11.7916 11.0383 11.8399 11.0847 11.8479 11.1163C11.9278 11.2884 11.9718 11.714 11.9797 12.3938C12.0122 13.5499 12.0484 15.128 12.0879 17.1282L12.1125 22.9527C12.1125 23.952 12.0765 24.7106 12.0043 25.2261C11.9718 25.4129 11.8874 25.6124 11.7511 25.8237C11.3818 25.972 10.8884 26.0927 10.2709 26.1869C10.0863 26.2101 9.81375 26.257 9.45239 26.3273L9.42857 27.4286C11.3465 27.366 12.4371 27.3232 12.7024 27.3C14.4191 27.1983 15.6151 27.1555 16.2887 27.1707L18.6596 27.2178C19.5908 27.2488 20.385 27.206 21.0428 27.0886C22.0859 26.901 22.9002 26.6666 23.4859 26.3856C24.0795 26.104 24.6414 25.6826 25.1708 25.12C25.5726 24.6903 25.8568 24.233 26.0256 23.7483C26.2579 23.0847 26.374 22.4561 26.374 21.8619C26.3746 20.8464 26.0053 19.9249 25.2674 19.0968V19.0968ZM15.8437 10.7882C16.4691 10.6864 16.9913 10.6359 17.4083 10.6359C18.7802 10.6359 19.8037 10.9288 20.4774 11.5144C21.1589 12.1009 21.5001 12.8314 21.5001 13.7065C21.5001 14.9482 21.143 15.8232 20.429 16.331C19.7149 16.8389 18.6561 17.0931 17.2517 17.0931C16.7223 17.0931 16.2852 17.0656 15.9397 17.011C15.9318 16.7454 15.9281 16.4448 15.9281 16.1084L15.9397 14.96C15.9477 13.7338 15.9239 12.6439 15.8675 11.6908C15.8517 11.4329 15.8437 11.1323 15.8437 10.7882V10.7882ZM21.862 24.3234C21.5649 24.8853 21.075 25.327 20.3934 25.6473C19.7119 25.9675 18.8448 26.1277 17.7939 26.1277C17.2804 26.1277 16.7185 26.0033 16.109 25.7533C16.013 25.5264 15.9648 25.3544 15.9648 25.2371L15.9286 22.0731L15.9402 20.0455V18.3585C16.1574 18.2797 16.5627 18.2411 17.1563 18.2411C18.4958 18.2411 19.4868 18.3662 20.1286 18.6161C20.7945 18.8662 21.3606 19.3585 21.826 20.0924C22.1548 20.6086 22.3193 21.3118 22.3193 22.2024C22.3193 23.069 22.1663 23.7763 21.862 24.3234V24.3234Z" fill="#F4F4F4"/>
</g>
</svg>
