<svg width="11" height="11" viewBox="0 0 11 11" fill="none" xmlns="http://www.w3.org/2000/svg"><path d="M2.5 6C3.88071 6 5 7.11929 5 8.5C5 9.88071 3.88071 11 2.5 11C1.11929 11 0 9.88071 0 8.5C4.0266e-08 7.11929 1.11929 6 2.5 6ZM8.5 6C8.77614 6 9 6.22386 9 6.5V8H10.5C10.7761 8 11 8.22386 11 8.5C11 8.77614 10.7761 9 10.5 9H9V10.5C9 10.7761 8.77614 11 8.5 11C8.22386 11 8 10.7761 8 10.5V9H6.5C6.22386 9 6 8.77614 6 8.5C6 8.22386 6.22386 8 6.5 8H8V6.5C8 6.22386 8.22386 6 8.5 6ZM2.5 7C1.67157 7 1 7.67157 1 8.5C1 9.32843 1.67157 10 2.5 10C3.32843 10 4 9.32843 4 8.5C4 7.67157 3.32843 7 2.5 7ZM2.5 0C3.88071 0 5 1.11929 5 2.5C5 3.88071 3.88071 5 2.5 5C1.11929 5 0 3.88071 0 2.5C4.0266e-08 1.11929 1.11929 4.02666e-08 2.5 0ZM8.5 0C9.88071 0 11 1.11929 11 2.5C11 3.88071 9.88071 5 8.5 5C7.11929 5 6 3.88071 6 2.5C6 1.11929 7.11929 4.02666e-08 8.5 0ZM2.5 1C1.67157 1 1 1.67157 1 2.5C1 3.32843 1.67157 4 2.5 4C3.32843 4 4 3.32843 4 2.5C4 1.67157 3.32843 1 2.5 1ZM8.5 1C7.67157 1 7 1.67157 7 2.5C7 3.32843 7.67157 4 8.5 4C9.32843 4 10 3.32843 10 2.5C10 1.67157 9.32843 1 8.5 1Z" fill="#212121"/></svg>
